<?xml version="1.0" encoding="UTF-8" standalone="no"?>
<!-- Created with Inkscape (http://www.inkscape.org/) -->

<svg
   version="1.1"
   id="svg1"
   width="133.33333"
   height="133.33333"
   viewBox="0 0 133.33333 133.33333"
   xmlns="http://www.w3.org/2000/svg"
   xmlns:svg="http://www.w3.org/2000/svg">
  <defs
     id="defs1" />
  <g
     id="g1">
    <path
       id="path1"
       d="M 50.00064,0 C 50.00064,27.61493 27.61493,50.00064 0,50.00064 -27.61493,50.00064 -50.00064,27.61493 -50.00064,0 c 0,-27.61493 22.38571,-50.00064 50.00064,-50.00064 27.61493,0 50.00064,22.38571 50.00064,50.00064 z M 48.80063,0 C 48.80063,26.95218 26.95218,48.80063 0,48.80063 -26.95218,48.80063 -48.80063,26.95218 -48.80063,0 c 0,-26.95218 21.84845,-48.80063 48.80063,-48.80063 26.95218,0 48.80063,21.84845 48.80063,48.80063 z"
       style="fill:#c8161e;fill-opacity:1;fill-rule:evenodd;stroke:none"
       transform="matrix(1.3333333,0,0,-1.3333333,66.666667,66.666667)" />
    <path
       id="path2"
       d="M 48.2006,0 C 48.2006,26.62079 26.62079,48.2006 0,48.2006 -26.62079,48.2006 -48.2006,26.62079 -48.2006,0 c 0,-26.62079 21.57981,-48.2006 48.2006,-48.2006 26.62079,0 48.2006,21.57981 48.2006,48.2006 z M 47.70059,0 C 47.70059,26.34464 26.34464,47.70059 0,47.70059 -26.34464,47.70059 -47.70059,26.34464 -47.70059,0 c 0,-26.34464 21.35595,-47.70059 47.70059,-47.70059 26.34464,0 47.70059,21.35595 47.70059,47.70059 z"
       style="fill:#c8161e;fill-opacity:1;fill-rule:evenodd;stroke:none"
       transform="matrix(1.3333333,0,0,-1.3333333,66.666667,66.666667)" />
    <path
       id="path3"
       d="m 34.84106,-0.76205 c 0.01198,0.45764 0.01198,1.06646 0,1.5241 -0.0022,0.0828 -0.07069,0.15708 -0.15304,0.16591 l -2.81421,0.3021 c -0.08235,0.00883 -0.15175,0.0831 -0.15498,0.16584 -0.01569,0.39908 -0.05202,0.94889 -0.08857,1.3466 -0.0076,0.08247 0.05149,0.16541 0.1319,0.18525 l 2.75176,0.67897 C 34.59431,3.62656 34.6525,3.70943 34.64384,3.7918 34.596,4.2471 34.51636,4.85143 34.44475,5.30362 34.4318,5.38542 34.35416,5.45013 34.27136,5.44815 L 31.44054,5.38025 C 31.35776,5.37827 31.27925,5.44284 31.26523,5.52446 31.1976,5.91808 31.09027,6.4578 31.00214,6.84734 c -0.01827,0.08078 0.02945,0.17074 0.10658,0.20089 l 2.63795,1.03221 c 0.07712,0.03017 0.12398,0.11994 0.10466,0.20046 -0.10687,0.44516 -0.26515,1.03375 -0.39517,1.4727 -0.02351,0.07941 -0.10893,0.13344 -0.19076,0.12067 l -2.79604,-0.4364 c -0.08183,-0.01277 -0.16809,0.041 -0.19264,0.1201 -0.11844,0.38142 -0.29556,0.90303 -0.43379,1.27775 -0.02866,0.0777 0.0069,0.1731 0.07943,0.21309 l 2.48191,1.36806 c 0.07253,0.03999 0.10728,0.13509 0.0776,0.2124 -0.16407,0.42743 -0.39726,0.99048 -0.58349,1.40873 -0.03368,0.07566 -0.12542,0.11807 -0.20488,0.09472 l -2.71672,-0.79846 c -0.07947,-0.02335 -0.17202,0.01871 -0.20668,0.09392 -0.16721,0.3627 -0.41106,0.85661 -0.59702,1.21006 -0.03856,0.07329 -0.01576,0.17254 0.05093,0.22164 l 2.2807,1.67927 c 0.06669,0.04911 0.08872,0.14794 0.0492,0.22071 -0.21843,0.40231 -0.52287,0.93044 -0.76209,1.32078 -0.04325,0.07062 -0.13975,0.1007 -0.21548,0.06719 l -2.58829,-1.14565 c -0.07574,-0.03349 -0.17297,-0.0039 -0.21716,0.06615 -0.21312,0.33778 -0.51857,0.79587 -0.74909,1.12202 -0.04779,0.06765 -0.03811,0.16901 0.0216,0.2264 l 2.0432,1.96383 c 0.0597,0.05739 0.06866,0.15825 0.01998,0.22525 -0.2691,0.3704 -0.64023,0.85384 -0.92836,1.20963 -0.05211,0.06436 -0.15172,0.08159 -0.22241,0.03847 L 24.5377,20.3794 c -0.0707,-0.04311 -0.17099,-0.02645 -0.22393,0.03721 -0.25539,0.30707 -0.61846,0.72188 -0.88956,1.01517 -0.05623,0.0608 -0.05988,0.16257 -0.0081,0.22725 l 1.76875,2.21222 c 0.05173,0.06468 0.04744,0.16585 -0.0096,0.22592 -0.31515,0.33206 -0.74602,0.76293 -1.07808,1.07808 -0.06007,0.057 -0.16106,0.06106 -0.22553,0.0091 L 21.6685,23.40792 c -0.06449,-0.05198 -0.16606,-0.04855 -0.22687,0.0077 -0.29327,0.27111 -0.70808,0.63417 -1.01515,0.88956 -0.06367,0.05295 -0.08057,0.15337 -0.03775,0.22426 l 1.46574,2.4261 c 0.04284,0.07088 0.02536,0.17062 -0.039,0.22273 -0.35579,0.28813 -0.83923,0.65926 -1.20963,0.92836 -0.067,0.04868 -0.16766,0.03954 -0.22479,-0.0204 l -1.95387,-2.04965 c -0.05713,-0.05993 -0.15829,-0.06979 -0.22592,-0.022 -0.32616,0.23051 -0.78426,0.53596 -1.12203,0.74908 -0.07003,0.04419 -0.09991,0.14153 -0.06671,0.21741 l 1.13588,2.59508 c 0.03321,0.07586 0.0029,0.17247 -0.06775,0.21572 -0.39034,0.23922 -0.91847,0.54366 -1.32078,0.76209 -0.07277,0.03952 -0.17137,0.01732 -0.2202,-0.04956 L 14.87111,28.21858 C 14.82228,28.1517 14.72328,28.12872 14.65,28.16728 c -0.35348,0.18596 -0.84739,0.42982 -1.21009,0.59703 -0.07521,0.03466 -0.11752,0.12729 -0.09451,0.20684 l 0.78792,2.72218 c 0.02301,0.07956 -0.01966,0.17137 -0.09532,0.20505 -0.41825,0.18623 -0.9813,0.41942 -1.40873,0.58349 -0.07731,0.02968 -0.17217,-0.0052 -0.21185,-0.07789 L 11.06064,29.91844 C 11.02095,29.84575 10.9258,29.81006 10.8481,29.83871 10.47337,29.97694 9.95177,30.15407 9.57034,30.2725 9.49124,30.29706 9.43721,30.38336 9.44963,30.46524 L 9.87488,33.2653 C 9.8873,33.34718 9.83301,33.43265 9.7536,33.45616 9.31465,33.58618 8.72606,33.74446 8.2809,33.85133 8.20038,33.87065 8.11087,33.8237 8.08102,33.74644 L 7.06049,31.10638 C 7.03065,31.02913 6.94095,30.98132 6.86015,30.99957 6.47063,31.08772 5.93091,31.19504 5.5373,31.26268 5.45567,31.27669 5.39082,31.3552 5.39246,31.438 l 0.05632,2.83335 C 5.45041,34.35416 5.38542,34.4318 5.30362,34.44475 4.85143,34.51636 4.2471,34.596 3.7918,34.64384 3.70943,34.6525 3.62682,34.59425 3.60733,34.51378 L 2.94019,31.76144 C 2.9207,31.68095 2.838,31.62184 2.75554,31.62941 2.35783,31.66595 1.80803,31.70229 1.40894,31.71797 1.3262,31.72122 1.25165,31.79059 1.24248,31.87288 L 0.92859,34.6881 c -0.00917,0.0823 -0.08374,0.1508 -0.16654,0.15296 -0.45764,0.01198 -1.06646,0.01198 -1.5241,0 -0.0828,-0.0022 -0.15708,-0.07069 -0.16591,-0.15304 l -0.3021,-2.81421 c -0.00883,-0.08235 -0.0831,-0.15175 -0.16584,-0.15498 -0.39908,-0.01569 -0.94889,-0.05202 -1.3466,-0.08857 -0.08247,-0.0076 -0.16541,0.05149 -0.18525,0.1319 l -0.67897,2.75176 C -3.62656,34.59431 -3.70943,34.6525 -3.7918,34.64384 -4.2471,34.596 -4.85143,34.51636 -5.30362,34.44475 -5.38542,34.4318 -5.45013,34.35416 -5.44815,34.27136 l 0.0679,-2.83082 c 0.00198,-0.08278 -0.06259,-0.16129 -0.14421,-0.17531 -0.39362,-0.06763 -0.93334,-0.17496 -1.32288,-0.26309 -0.08078,-0.01827 -0.17074,0.02945 -0.20089,0.10658 l -1.03221,2.63795 c -0.03017,0.07712 -0.11994,0.12398 -0.20046,0.10466 -0.44516,-0.10687 -1.03375,-0.26515 -1.4727,-0.39517 -0.07941,-0.02351 -0.13344,-0.10893 -0.12067,-0.19076 l 0.4364,-2.79604 c 0.01277,-0.08183 -0.041,-0.16809 -0.1201,-0.19264 -0.38142,-0.11844 -0.90303,-0.29556 -1.27775,-0.43379 -0.0777,-0.02866 -0.1731,0.0069 -0.21309,0.07943 l -1.36806,2.48191 c -0.03999,0.07253 -0.13509,0.10728 -0.2124,0.0776 -0.42743,-0.16407 -0.99048,-0.39726 -1.40873,-0.58349 -0.07566,-0.03368 -0.11807,-0.12542 -0.09472,-0.20488 l 0.79846,-2.71672 c 0.02335,-0.07947 -0.01871,-0.17202 -0.09392,-0.20668 -0.3627,-0.16721 -0.85661,-0.41106 -1.21006,-0.59702 -0.07329,-0.03856 -0.17254,-0.01576 -0.22164,0.05093 l -1.67927,2.2807 c -0.04911,0.06669 -0.14794,0.08872 -0.22071,0.0492 -0.40231,-0.21843 -0.93044,-0.52287 -1.32078,-0.76209 -0.07062,-0.04325 -0.1007,-0.13975 -0.06719,-0.21548 l 1.14565,-2.58829 c 0.03349,-0.07574 0.0039,-0.17297 -0.06615,-0.21716 -0.33778,-0.21312 -0.79587,-0.51857 -1.12202,-0.74909 -0.06765,-0.04779 -0.16901,-0.03811 -0.2264,0.0216 l -1.96383,2.0432 c -0.05739,0.0597 -0.15825,0.06866 -0.22525,0.01998 -0.3704,-0.2691 -0.85384,-0.64023 -1.20963,-0.92836 -0.06436,-0.05211 -0.08159,-0.15172 -0.03847,-0.22241 l 1.47453,-2.41811 c 0.04311,-0.0707 0.02645,-0.17099 -0.03721,-0.22393 -0.30707,-0.25539 -0.72188,-0.61846 -1.01517,-0.88956 -0.0608,-0.05623 -0.16257,-0.05988 -0.22725,-0.0081 l -2.21222,1.76875 c -0.06468,0.05173 -0.16585,0.04744 -0.22592,-0.0096 -0.33206,-0.31515 -0.76293,-0.74602 -1.07808,-1.07808 -0.057,-0.06007 -0.06106,-0.16106 -0.0091,-0.22553 l 1.77643,-2.20315 c 0.05198,-0.06449 0.04855,-0.16606 -0.0077,-0.22687 -0.27111,-0.29327 -0.63417,-0.70808 -0.88956,-1.01515 -0.05295,-0.06367 -0.15337,-0.08057 -0.22426,-0.03775 l -2.4261,1.46574 c -0.07088,0.04284 -0.17062,0.02536 -0.22273,-0.039 -0.28813,-0.35579 -0.65926,-0.83923 -0.92836,-1.20963 -0.04868,-0.067 -0.03954,-0.16766 0.0204,-0.22479 l 2.04965,-1.95387 c 0.05993,-0.05713 0.06979,-0.15829 0.022,-0.22592 -0.23051,-0.32616 -0.53596,-0.78426 -0.74908,-1.12203 -0.04419,-0.07003 -0.14153,-0.09991 -0.21741,-0.06671 l -2.59508,1.13588 c -0.07586,0.03321 -0.17247,0.0029 -0.21572,-0.06775 -0.23922,-0.39034 -0.54366,-0.91847 -0.76209,-1.32078 -0.03952,-0.07277 -0.01732,-0.17137 0.04956,-0.2202 l 2.28577,-1.66855 c 0.06688,-0.04883 0.08986,-0.14783 0.0513,-0.22111 -0.18596,-0.35348 -0.42982,-0.84739 -0.59703,-1.21009 -0.03466,-0.07521 -0.12729,-0.11752 -0.20684,-0.09451 l -2.72218,0.78792 c -0.07956,0.02301 -0.17137,-0.01966 -0.20505,-0.09532 -0.18623,-0.41825 -0.41942,-0.9813 -0.58349,-1.40873 -0.02968,-0.07731 0.0052,-0.17217 0.07789,-0.21185 l 2.48554,-1.35678 c 0.07269,-0.03969 0.10838,-0.13484 0.07973,-0.21254 -0.13823,-0.37473 -0.31536,-0.89633 -0.43379,-1.27776 -0.02456,-0.0791 -0.11086,-0.13313 -0.19274,-0.12071 l -2.80006,0.42525 c -0.08188,0.01242 -0.16735,-0.04187 -0.19086,-0.12128 -0.13002,-0.43895 -0.2883,-1.02754 -0.39517,-1.4727 -0.01932,-0.08052 0.02763,-0.17003 0.10489,-0.19988 l 2.64006,-1.02053 c 0.07725,-0.02984 0.12506,-0.11954 0.10681,-0.20034 C -31.08772,6.47063 -31.19504,5.93091 -31.26268,5.5373 -31.27669,5.45567 -31.3552,5.39082 -31.438,5.39246 l -2.83335,0.05632 C -34.35416,5.45041 -34.4318,5.38542 -34.44475,5.30362 -34.51636,4.85143 -34.596,4.2471 -34.64384,3.7918 c -0.0087,-0.08237 0.04959,-0.16498 0.13006,-0.18447 l 2.75234,-0.66714 c 0.08049,-0.01949 0.1396,-0.10219 0.13203,-0.18465 -0.03654,-0.39771 -0.07288,-0.94751 -0.08856,-1.3466 -0.0032,-0.08274 -0.07262,-0.15729 -0.15491,-0.16646 L -34.6881,0.92859 c -0.0823,-0.00917 -0.1508,-0.08374 -0.15296,-0.16654 -0.01198,-0.45764 -0.01198,-1.06646 0,-1.5241 0.0022,-0.0828 0.07069,-0.15708 0.15304,-0.16591 l 2.81421,-0.3021 c 0.08235,-0.00883 0.15175,-0.0831 0.15498,-0.16584 0.01569,-0.39908 0.05202,-0.94889 0.08857,-1.3466 0.0076,-0.08247 -0.05149,-0.16541 -0.1319,-0.18525 l -2.75176,-0.67897 c -0.08039,-0.01984 -0.13858,-0.10271 -0.12992,-0.18508 0.04784,-0.4553 0.12748,-1.05963 0.19909,-1.51182 0.01295,-0.0818 0.09059,-0.14651 0.17339,-0.14453 l 2.83082,0.0679 c 0.08278,0.00198 0.16129,-0.06259 0.17531,-0.14421 0.06763,-0.39362 0.17496,-0.93334 0.26309,-1.32288 0.01827,-0.08078 -0.02945,-0.17074 -0.10658,-0.20089 l -2.63795,-1.03221 c -0.07712,-0.03017 -0.12398,-0.11994 -0.10466,-0.20046 0.10687,-0.44516 0.26515,-1.03375 0.39517,-1.4727 0.02351,-0.07941 0.10893,-0.13344 0.19076,-0.12067 l 2.79604,0.4364 c 0.08183,0.01277 0.16809,-0.041 0.19264,-0.1201 0.11844,-0.38142 0.29556,-0.90303 0.43379,-1.27775 0.02866,-0.0777 -0.0069,-0.1731 -0.07943,-0.21309 l -2.48191,-1.36806 c -0.07253,-0.03999 -0.10728,-0.13509 -0.0776,-0.2124 0.16407,-0.42743 0.39726,-0.99048 0.58349,-1.40873 0.03368,-0.07566 0.12542,-0.11807 0.20488,-0.09472 l 2.71672,0.79846 c 0.07947,0.02335 0.17202,-0.01871 0.20668,-0.09392 0.16721,-0.3627 0.41106,-0.85661 0.59702,-1.21006 0.03856,-0.07329 0.01576,-0.17254 -0.05093,-0.22164 l -2.2807,-1.67927 c -0.06669,-0.04911 -0.08872,-0.14794 -0.0492,-0.22071 0.21843,-0.40231 0.52287,-0.93044 0.76209,-1.32078 0.04325,-0.07062 0.13975,-0.1007 0.21548,-0.06719 l 2.58829,1.14565 c 0.07574,0.03349 0.17297,0.0039 0.21716,-0.06615 0.21312,-0.33778 0.51857,-0.79587 0.74909,-1.12202 0.04779,-0.06765 0.03811,-0.16901 -0.0216,-0.2264 l -2.0432,-1.96383 c -0.0597,-0.05739 -0.06866,-0.15825 -0.01998,-0.22525 0.2691,-0.3704 0.64023,-0.85384 0.92836,-1.20963 0.05211,-0.06436 0.15172,-0.08159 0.22241,-0.03847 l 2.41811,1.47453 c 0.0707,0.04311 0.17099,0.02645 0.22393,-0.03721 0.25539,-0.30707 0.61846,-0.72188 0.88956,-1.01517 0.05623,-0.0608 0.05988,-0.16257 0.0081,-0.22725 l -1.76875,-2.21222 c -0.05173,-0.06468 -0.04744,-0.16585 0.0096,-0.22592 0.31515,-0.33206 0.74602,-0.76293 1.07808,-1.07808 0.06007,-0.057 0.16106,-0.06106 0.22553,-0.0091 l 2.20315,1.77643 c 0.06449,0.05198 0.16606,0.04855 0.22687,-0.0077 0.29327,-0.27111 0.70808,-0.63417 1.01515,-0.88956 0.06367,-0.05295 0.08057,-0.15337 0.03775,-0.22426 l -1.46574,-2.4261 c -0.04284,-0.07088 -0.02536,-0.17062 0.039,-0.22273 0.35579,-0.28813 0.83923,-0.65926 1.20963,-0.92836 0.067,-0.04868 0.16766,-0.03954 0.22479,0.0204 l 1.95387,2.04965 c 0.05713,0.05993 0.15829,0.06979 0.22592,0.022 0.32616,-0.23051 0.78426,-0.53596 1.12203,-0.74908 0.07003,-0.04419 0.09991,-0.14153 0.06671,-0.21741 l -1.13588,-2.59508 c -0.03321,-0.07586 -0.0029,-0.17247 0.06775,-0.21572 0.39034,-0.23922 0.91847,-0.54366 1.32078,-0.76209 0.07277,-0.03952 0.17137,-0.01732 0.2202,0.04956 l 1.66855,2.28577 c 0.04883,0.06688 0.14783,0.08986 0.22111,0.0513 0.35348,-0.18596 0.84739,-0.42982 1.21009,-0.59703 0.07521,-0.03466 0.11752,-0.12729 0.09451,-0.20684 l -0.78792,-2.72218 c -0.02301,-0.07956 0.01966,-0.17137 0.09532,-0.20505 0.41825,-0.18623 0.9813,-0.41942 1.40873,-0.58349 0.07731,-0.02968 0.17217,0.0052 0.21185,0.07789 l 1.35678,2.48554 c 0.03969,0.07269 0.13484,0.10838 0.21254,0.07973 0.37473,-0.13823 0.89633,-0.31536 1.27776,-0.43379 0.0791,-0.02456 0.13313,-0.11086 0.12071,-0.19274 l -0.42525,-2.80006 c -0.01242,-0.08188 0.04187,-0.16735 0.12128,-0.19086 0.43895,-0.13002 1.02754,-0.2883 1.4727,-0.39517 0.08052,-0.01932 0.17003,0.02763 0.19988,0.10489 l 1.02053,2.64006 c 0.02984,0.07725 0.11954,0.12506 0.20034,0.10681 0.38952,-0.08815 0.92924,-0.19547 1.32285,-0.26311 0.08163,-0.01401 0.14648,-0.09252 0.14484,-0.17532 l -0.05632,-2.83335 c -0.00163,-0.08281 0.06336,-0.16045 0.14516,-0.1734 0.45219,-0.07161 1.05652,-0.15125 1.51182,-0.19909 0.08237,-0.0087 0.16498,0.04959 0.18447,0.13006 l 0.66714,2.75234 c 0.01949,0.08049 0.10219,0.1396 0.18465,0.13203 0.39771,-0.03654 0.94751,-0.07288 1.3466,-0.08856 0.08274,-0.0032 0.15729,-0.07262 0.16646,-0.15491 l 0.31389,-2.81522 c 0.00917,-0.0823 0.08374,-0.1508 0.16654,-0.15296 0.45764,-0.01198 1.06646,-0.01198 1.5241,0 0.0828,0.0022 0.15708,0.07069 0.16591,0.15304 l 0.3021,2.81421 c 0.00883,0.08235 0.0831,0.15175 0.16584,0.15498 0.39908,0.01569 0.94889,0.05202 1.3466,0.08857 0.08247,0.0076 0.16541,-0.05149 0.18525,-0.1319 l 0.67897,-2.75176 c 0.01984,-0.08039 0.10271,-0.13858 0.18508,-0.12992 0.4553,0.04784 1.05963,0.12748 1.51182,0.19909 0.0818,0.01295 0.14651,0.09059 0.14453,0.17339 l -0.0679,2.83082 c -0.00198,0.08278 0.06259,0.16129 0.14421,0.17531 0.39362,0.06763 0.93334,0.17496 1.32288,0.26309 0.08078,0.01827 0.17074,-0.02945 0.20089,-0.10658 l 1.03221,-2.63795 c 0.03017,-0.07712 0.11994,-0.12398 0.20046,-0.10466 0.44516,0.10687 1.03375,0.26515 1.4727,0.39517 0.07941,0.02351 0.13344,0.10893 0.12067,0.19076 l -0.4364,2.79604 c -0.01277,0.08183 0.041,0.16809 0.1201,0.19264 0.38142,0.11844 0.90303,0.29556 1.27775,0.43379 0.0777,0.02866 0.1731,-0.0069 0.21309,-0.07943 l 1.36806,-2.48191 c 0.03999,-0.07253 0.13509,-0.10728 0.2124,-0.0776 0.42743,0.16407 0.99048,0.39726 1.40873,0.58349 0.07566,0.03368 0.11807,0.12542 0.09472,0.20488 l -0.79846,2.71672 c -0.02335,0.07947 0.01871,0.17202 0.09392,0.20668 0.3627,0.16721 0.85661,0.41106 1.21006,0.59702 0.07329,0.03856 0.17254,0.01576 0.22164,-0.05093 l 1.67927,-2.2807 c 0.04911,-0.06669 0.14794,-0.08872 0.22071,-0.0492 0.40231,0.21843 0.93044,0.52287 1.32078,0.76209 0.07062,0.04325 0.1007,0.13975 0.06719,0.21548 l -1.14565,2.58829 c -0.03349,0.07574 -0.0039,0.17297 0.06615,0.21716 0.33778,0.21312 0.79587,0.51857 1.12202,0.74909 0.06765,0.04779 0.16901,0.03811 0.2264,-0.0216 l 1.96383,-2.0432 c 0.05739,-0.0597 0.15825,-0.06866 0.22525,-0.01998 0.3704,0.2691 0.85384,0.64023 1.20963,0.92836 0.06436,0.05211 0.08159,0.15172 0.03847,0.22241 l -1.47453,2.41811 c -0.04311,0.0707 -0.02645,0.17099 0.03721,0.22393 0.30707,0.25539 0.72188,0.61846 1.01517,0.88956 0.0608,0.05623 0.16257,0.05988 0.22725,0.0081 l 2.21222,-1.76875 c 0.06468,-0.05173 0.16585,-0.04744 0.22592,0.0096 0.33206,0.31515 0.76293,0.74602 1.07808,1.07808 0.057,0.06007 0.06106,0.16106 0.0091,0.22553 l -1.77643,2.20315 c -0.05198,0.06449 -0.04855,0.16606 0.0077,0.22687 0.27111,0.29327 0.63417,0.70808 0.88956,1.01515 0.05295,0.06367 0.15337,0.08057 0.22426,0.03775 l 2.4261,-1.46574 c 0.07088,-0.04284 0.17062,-0.02536 0.22273,0.039 0.28813,0.35579 0.65926,0.83923 0.92836,1.20963 0.04868,0.067 0.03954,0.16766 -0.0204,0.22479 l -2.04965,1.95387 c -0.05993,0.05713 -0.06979,0.15829 -0.022,0.22592 0.23051,0.32616 0.53596,0.78426 0.74908,1.12203 0.04419,0.07003 0.14153,0.09991 0.21741,0.06671 l 2.59508,-1.13588 c 0.07586,-0.03321 0.17247,-0.0029 0.21572,0.06775 0.23922,0.39034 0.54366,0.91847 0.76209,1.32078 0.03952,0.07277 0.01732,0.17137 -0.04956,0.2202 l -2.28577,1.66855 c -0.06688,0.04883 -0.08986,0.14783 -0.0513,0.22111 0.18596,0.35348 0.42982,0.84739 0.59703,1.21009 0.03466,0.07521 0.12729,0.11752 0.20684,0.09451 l 2.72218,-0.78792 c 0.07956,-0.02301 0.17137,0.01966 0.20505,0.09532 0.18623,0.41825 0.41942,0.9813 0.58349,1.40873 0.02968,0.07731 -0.0052,0.17217 -0.07789,0.21185 l -2.48554,1.35678 c -0.07269,0.03969 -0.10838,0.13484 -0.07973,0.21254 0.13823,0.37473 0.31536,0.89633 0.43379,1.27776 0.02456,0.0791 0.11086,0.13313 0.19274,0.12071 l 2.80006,-0.42525 c 0.08188,-0.01242 0.16735,0.04187 0.19086,0.12128 0.13002,0.43895 0.2883,1.02754 0.39517,1.4727 0.01932,0.08052 -0.02763,0.17003 -0.10489,0.19988 l -2.64006,1.02053 c -0.07725,0.02984 -0.12506,0.11954 -0.10681,0.20034 0.08815,0.38952 0.19547,0.92924 0.26311,1.32285 0.01401,0.08163 0.09252,0.14648 0.17532,0.14484 l 2.83335,-0.05632 c 0.08281,-0.00163 0.16045,0.06336 0.1734,0.14516 0.07161,0.45219 0.15125,1.05652 0.19909,1.51182 0.0087,0.08237 -0.04959,0.16498 -0.13006,0.18447 l -2.75234,0.66714 c -0.08049,0.01949 -0.1396,0.10219 -0.13203,0.18465 0.03654,0.39771 0.07288,0.94751 0.08856,1.3466 0.0032,0.08274 0.07262,0.15729 0.15491,0.16646 l 2.81522,0.31389 c 0.0823,0.00917 0.1508,0.08374 0.15296,0.16654 z M 28.45035,0 C 28.45035,15.71288 15.71288,28.45035 0,28.45035 -15.71288,28.45035 -28.45035,15.71288 -28.45035,0 c 0,-15.71288 12.73747,-28.45035 28.45035,-28.45035 15.71288,0 28.45035,12.73747 28.45035,28.45035 z"
       style="fill:#c8161e;fill-opacity:1;fill-rule:evenodd;stroke:none"
       transform="matrix(1.3333333,0,0,-1.3333333,66.666667,66.666667)" />
    <path
       id="path4"
       d="m 38.77003,21.25002 c -0.04,-0.77001 -0.86,-1.29 -1.49998,-1.64 -0.63002,-0.35002 -1.46002,0.47 -1.61002,1 -0.07,0.25 -0.13,1.05 0.09,1.24 0.26,0.20999 0.64,0.03999 0.91,0.25998 0.01999,0.02002 0.05001,0.13002 0.05001,0.17001 -0.09001,0.76 1.05999,0.28 1.65999,-0.19999 0.18,-0.14 0.41001,-0.69001 0.4,-0.83 z m 1.56,-4.95002 c -0.05,0.21 -0.20999,0.80002 -0.22998,1.18 v 0 c -0.02002,1.00001 -0.26002,1.87 -0.40002,2.85 -0.06,0.43001 -0.28998,2.02002 0.46002,2.01001 0.03998,0 0.17999,0.16001 0.17999,0.21001 0.05998,0.78999 -0.44,1.08999 -1.14001,0.81 -0.39,-0.16001 -0.61,-0.21001 -0.98,0.02999 -0.07998,0.05001 -0.83,0.48 -1.52998,0.94001 -0.44002,0.28999 -1.77002,1.30999 -1.77002,1.30999 -0.59999,0.36002 -1.20999,1.28 -1.56999,0.24001 0.47,-0.94 1.51999,-1.27 2.23999,-1.92 0.35,-0.31001 0.59001,-0.99 -0.12,-0.75 -0.71,0.25 -1.50999,1.12 -1.94,1.37001 -0.41,0.23999 -1.34,0.32999 -1.02002,-0.41002 0.19002,-0.44 0.54002,-0.83 0.98003,-1.03 0.23999,-0.11 1.08999,-0.38999 1.14,-0.58 0.12999,-0.27 0.08,-0.94999 -0.12001,-1.19 -0.32,-0.39 -1.15999,0.23001 -1.57,0.55 -0.02,0.02001 -0.19999,0.13001 -0.44,0.27999 -0.27,0.16002 -0.85001,0.44001 -1.24,0.61001 -0.2,0.09 -0.61001,0.24001 -0.74,0.27001 -0.43,0.11999 -1.77999,0.45999 -1.52,-0.5 0.01,-0.01 0.03998,-0.06 0.07999,-0.10001 0.14,-0.09999 0.47,-0.31 0.84001,-0.51999 0.35,-0.20001 1.98999,-0.70001 2.58998,-1.02 0.56003,-0.30001 1.22002,-0.45 1.70003,-0.91001 0.19999,-0.19001 0.26999,-0.36 0.31999,-0.52999 0.04001,-0.17002 0.25,-1.22001 0.25,-1.60001 0,-0.95999 -0.24001,-2.08001 -0.45999,-2.81 C 34.09003,14.35 33.42003,13.11 34.63004,13.07 c 1.19999,-0.05 1.15998,3.91001 1.22999,4.78002 0.02001,0.25998 0.12001,1.45998 0.63002,1.01999 0.87998,-0.73 0.64998,-1.90999 0.74999,-2.89 0.03001,-0.28001 0.26999,-0.36001 0.52,-0.43001 0.07999,-0.02 0.38998,-0.01 0.42999,0.05002 0.2,0.31999 0.23,0.72 0.2,1.09 -0.02998,0.63998 -0.33998,1.52 -0.08,2.16 0.17,0.36 0.45001,0.48999 0.58002,0.03999 0.01,-0.02 0.01,-0.03001 0.01998,-0.05001 0.03002,-0.13999 0.09002,-0.54999 0.09002,-0.64 -0.02001,-0.72 0.25,-2.61 0.28999,-2.65999 0.28,-0.37001 0.78999,-0.57001 1.16,-0.08001 0.12,0.15 -0.08001,0.62 -0.12001,0.84 z"
       style="fill:#c8161e;fill-opacity:1;fill-rule:evenodd;stroke:none"
       transform="matrix(1.3333333,0,0,-1.3333333,66.666667,66.666667)" />
    <path
       id="path5"
       d="m 18.73,39.66003 c -0.02,0.01001 -0.07999,0.06002 -0.09998,0.09 -0.49001,0.57002 -1.51001,0.96001 -2.26002,1.01001 -0.04,0 -0.11,0.02 -0.16,0.04001 0,0 -0.04,0.03 -0.04998,0.03 -0.16,0.17 -0.40001,0.84999 0.14998,0.67 0.6,-0.19002 0.6,-0.24002 1.05002,-0.39002 0.40998,-0.14998 1.06999,-0.36 1.41999,-0.52998 0.02001,-0.01001 0.03,-0.01001 0.03999,-0.02001 0.03002,-0.01001 0.05001,-0.03001 0.08001,-0.03999 h -0.01 c 0.07001,-0.04002 0.12,-0.08002 0.18001,-0.13002 0.46999,-0.42998 0.29999,-0.89998 -0.34002,-0.73 z m -1.71,-1.60998 c 0.12001,0.71998 1.04,-0.06001 0.82,-0.53002 -0.02,-0.02998 -0.09,-0.05999 -0.11,-0.05999 -0.11998,0.03999 -0.22,0.12001 -0.29999,0.21 -0.12001,0.11998 -0.42,0.35999 -0.41001,0.38001 z m 1.12001,-2.09001 c -0.16,-0.44001 -1.35001,0.33999 -1.32001,0.89999 0,0.02001 0.03002,0.06999 0.04,0.06999 0.36,0.05002 1.44002,-0.51999 1.28001,-0.96998 z M 17.22,34.01003 c 0.32001,0.43 0.32001,0.9 -0.09999,1.25 -0.03,0.03001 -0.06999,0.05 -0.11,0.08 -0.17001,0.12001 -0.36,0.18 -0.53001,0.28 -0.11,0.05999 -0.22,0.09001 -0.35999,0.07002 C 15.73,35.64003 15.4,35.39003 15.42,34.97003 c 0.01001,-0.74 1.01001,-1.08 1.65002,-1.05 0.03,0 0.14,0.06 0.14998,0.09 z m -2.25998,3.07 c -0.18001,0.08002 -0.84002,0.43 -0.76002,0.70001 0.08,0.22001 0.45001,0.36001 1.18002,-0.13 0.02998,-0.02 0.07998,-0.15001 0.06999,-0.2 C 15.42,37.16005 15.36002,36.90002 14.96002,37.08003 Z M 13.64,35.35004 c 0.39,-0.25 1.25001,-0.01001 1.25001,0.54001 C 14.88,36.81003 13.45,36.91003 13.05,36.23003 c -0.1,-0.21 0.19,-0.62998 0.59,-0.87999 z m 1.56,3.37999 c 0.14001,0.37001 0.7,0.16999 0.78001,-0.14998 0.01,-0.02001 -0.05001,-0.09 -0.07001,-0.09 -0.25,-0.04001 -0.47,-0.05002 -0.7,0.15999 -0.01,-0.01001 -0.02,0.06 -0.01,0.07999 z m -3.91,-1.62999 c 0.14,0.12999 0.38,0.29998 0.80001,-0.06002 0.01999,-0.01999 0.07999,-0.11999 0.07999,-0.14 0.17,-1.25999 -1.78,-0.69999 -0.88,0.20002 z M 9.38,36.40002 c 0.39,-0.16999 1.67,1.43001 0.94,1.93001 -0.74,0.50002 -1.34,-1.75999 -0.94,-1.93001 z m 10.87002,4.35001 c -1.41002,0.79001 -2.84,1.39999 -4.44002,1.69 -0.78,0.14002 -1.53,-1.54998 -0.75,-2.00999 0.31,-0.17999 1.54002,-0.12999 1.49,-0.65 v 0 c -0.05998,-0.33 -1.25,0.29001 -2.2,-0.24 -0.05,-0.03001 -0.09,-0.06001 -0.13,-0.08 -0.28,-0.18999 -0.51,-0.53002 -0.78,-0.76999 -0.27,-0.25002 -0.65,-0.81001 -1.08,-0.73 -0.34,0.05998 -0.92,0.60999 -0.88,0.68999 0.16,0.29999 0.59,0.11 0.86,0.45999 0.49,0.63002 0.39,1.36002 0.66002,2.06 C 13.3,41.92004 14.5,41.70004 14.51,42.78004 c 0.01,0.43999 -0.4,0.68001 -0.7,0.98 l -0.37,0.25999 c -0.18,0.11002 -0.92,0.10001 -0.8,-0.44998 0.06,-0.26002 0.54001,-1 0.06,-1.12001 -0.65,-0.16 -1.56,0.13001 -2.19002,0.29001 -0.11,0.03 -0.89998,0.31 -1.01998,0.28999 C 9.39,43.02003 9.3,42.99005 9.25,42.94005 8.99,42.67004 9.01,42.20003 9.23,41.95003 c 0.01,-0.01 0.01,-0.01 0.01,-0.01 0.01,-0.02001 0.05,-0.05 0.06,-0.06 0.15,-0.04002 0.66,-0.07001 0.67,-0.07001 0.3,0 0.82,-0.11999 1.2,-0.28001 v 0 c 0.41,-0.18999 0.64,-0.33998 0.19,-0.47998 -0.01,0 -0.01,-0.01003 -0.02,-0.01003 0,0 0,0 -0.01,0 C 10.68,40.82002 9.52,41.4 8.87,41.07003 8.85,41.06003 8.8,41.03004 8.8,41.01004 8.74,40.91003 8.56,40.55003 8.77,40.44003 c 0.2,-0.11 0.47,-0.16998 0.62998,-0.18 0.13,-0.01 0.96002,0.01002 1.34002,0.02 0.11,0.01001 0.26,0.05 0.29,0.06001 0.08,0.02999 0.15,0.05998 0.23,0.07001 0.28,0.03999 0.51,-0.01003 0.38,-0.35002 -0.16,-0.42 -1.68,-0.84 -2.08,-0.73998 -0.4,0.09998 -0.85001,-0.43 -0.86,-0.51002 -0.07,-0.37 -0.04,-0.78 -0.21,-1.17 -0.22,-0.53 -0.7,-1.24001 -0.44,-1.83 0.07,-0.19 1.25,-0.25 2.61,-0.44 0.09,-0.01 0.18,-0.01999 0.27,-0.04 0.86,-0.13 1.77,-0.32 2.48,-0.63 0.28002,-0.12 0.51,-0.20999 0.7,-0.29 0.99,-0.5 2.01001,-1.13 2.17,-1.30999 0.78,-0.91001 1.99002,-2.41001 2.46002,-1.77002 -0.03002,0.64001 -0.40001,1.1 -0.67,1.65001 -0.11,0.23001 0.2,0.32998 0.31999,0.49 0.46001,0.59 0.58001,1.49001 0.73,2.2 0.13001,0.59 0.20999,1.19 0.37001,1.77 0.17999,0.67 -0.74002,1.13001 -1.33,1.30002 -0.08002,0.02998 -0.22,0.16998 -0.21002,0.22 0.11,0.47998 0.99002,0.09 1.53001,-0.25001 0.21001,-0.12999 0.75,-0.10001 0.86,0.09001 0.16999,0.28999 0.27999,0.65999 0.43001,0.89 0.36,0.53999 -0.07001,0.81 -0.52,1.05998 z"
       style="fill:#c8161e;fill-opacity:1;fill-rule:evenodd;stroke:none"
       transform="matrix(1.3333333,0,0,-1.3333333,66.666667,66.666667)" />
    <path
       id="path6"
       d="m -15.2,42.98004 c -0.07002,-1.8 1.59,-0.85 2.66,-0.78001 0.37,0.03001 3.73,1.34001 3.26,-0.03998 -0.29,-0.86 -1.39,-0.57001 -2.08,-0.65002 -0.81,-0.09998 -1.73001,-0.38999 -2.48,-0.72999 -0.72001,-0.34001 -0.18,-0.8 0.4,-0.65 0.54,0.12999 1.04,0.17999 1.6,0.14999 1.32,-0.08 2.72,-0.45999 3.80002,-1.22998 C -7.49,38.66003 -5.9,37.09004 -6.9,36.62003 c -0.6,-0.29 -1.42999,0.55 -1.86,0.93 -0.69,0.59999 -1.16,1.14002 -2.07,1.43001 -1.64,0.51001 -3.33002,0.2 -4.63,-0.94002 -1.18,-1.02999 -2.06002,-2.19999 -2.34002,-3.75 -0.10998,-0.64 -0.39,-2.94999 -1.45,-2.18998 -1.16998,0.84999 0.50002,3.59001 0.81002,4.08 0.14999,0.23999 0.43998,0.56999 0.76,0.91 0.2,0.21999 0.66,0.76001 1.00999,1.15 0.19001,0.21 0.81001,0.81001 1.06001,1 0.37,0.28999 0.51999,0.81001 -0.17001,0.77999 -0.63999,-0.02999 -0.92999,-0.40998 -1.72001,-0.74 -0.78999,-0.33 -2.80998,-2.18999 -3.19,-1.09 -0.47,1.36 2.54002,1.91002 3.36002,2.24001 0.18999,0.07999 0.45,0.17001 0.65,0.24 0.15998,0.05999 0.37,0.2 0.4,0.23999 0.17,0.22001 0.29,0.55001 0.22998,0.71 -0.16998,0.4 -0.47,0.91 -0.47,1.32002 0.33002,0.29999 0.97002,0.31999 1.32002,0.03999 z"
       style="fill:#c8161e;fill-opacity:1;fill-rule:evenodd;stroke:none"
       transform="matrix(1.3333333,0,0,-1.3333333,66.666667,66.666667)" />
    <path
       id="path7"
       d="m -37.10004,20.82 c -0.30999,0.34002 0.32,1.33001 0.64,0.71001 0.04001,-0.41 -0.36,-0.82001 -0.64,-0.71001 z m 6.58001,4.63001 c -0.55001,-0.02 -2.45,-0.3 -2.85,-0.52 -0.97,-0.51999 -1.35,-1.03 -1.95001,-1.92998 -0.25,-0.37001 -0.50999,-0.86002 -0.92999,-0.49002 -0.31001,0.28 -0.61,-0.14999 -0.97,-0.03999 -0.39,0.11 -0.37,0.45999 -0.53,0.75 -0.22,0.42999 -0.73,-0.03 -1.01001,-0.08001 -0.23,0.16001 -0.07001,0.80001 -0.29999,0.96001 -0.74002,0.01 -0.91,-0.45001 -0.74002,-1.06001 0.18002,-0.64001 -0.41998,-1.01 -0.36998,-1.62001 0.2,-0.2 0.51,-0.12999 0.73,0 0.27998,-0.11998 0.38,-0.44998 0.47998,-0.71 0.15002,-0.43998 0.35002,-0.2 0.69,-0.18998 1.78,0.08 0.54002,-2.12002 0.30002,-2.97002 -0.13001,-0.47 -0.30002,-1.13 -0.05,-1.58 0.16,-0.27998 0.59001,-1.13 0.69,-1.31 0.41,-0.69 2.40001,-1.65998 1.69999,-0.15 -0.44999,0.98002 -1.36,1.58001 -1.19,2.76002 0.21001,1.37999 0.46001,2.39 1.03002,3.67 0.47999,1.03999 1.45999,1.92 2.32998,2.61 0.44001,0.34001 0.89,0.61999 1.46001,0.63 0.57001,0.01 1.18001,-0.19 1.73,0.04 0.25001,0.33 0.02,0.97 -0.25,1.22999 z m -2.98,-6.72999 c 0,0 0,-0.01002 0,0 -0.06,-0.77002 -0.74001,-0.80001 -0.81,-0.55002 -0.06,0.17001 0.33,1.04002 0.72,0.81001 0.03,-0.01999 0.09999,-0.14001 0.09999,-0.17 0,-0.01 0,-0.03 0,-0.06001 -0.01,-0.01 -0.01,-0.02 -0.01,-0.02998 v 0 z m -1.39002,0.36999 c -0.35998,0.52999 0.28002,1.17 0.42002,1.69 0.06,0.09 0.1,0.21001 0.25,0.21001 0.14999,0.01 0.03,0.01 0.29001,-0.14 0.26999,-0.16 -0.60001,-2.29001 -0.96003,-1.76001 z m 2.69004,3.72 c 0.22998,0.04001 0.90999,0.01001 1.03998,-0.16 0.58,-0.70999 -0.12,-1.34001 -0.2,-2.01999 -0.3,-0.97 -0.76999,-1.28002 -0.16998,-2.28002 0.39999,-0.67 -0.05002,-1.95 -0.94002,-1.85 -0.3,0.24002 -0.02001,0.89 -0.23,1.06001 -1.12001,0.16001 -1.11,-1.91 -2.67,-1.28001 -0.02999,0.01001 -0.1,0.09 -0.1,0.12 -0.15,0.63001 0.36999,0.74001 0.5,1.15 -0.20999,0.32001 -0.7,0.28002 -0.89,0.61002 -0.12001,1.28999 0.55,2.44 1.14,3.45 0.28,0.47 0.68001,0.83 1.25999,0.56999 0.77001,-0.34 0.19001,-1.40999 0.52001,-1.92999 0.94,0.01 0.39,1.88 0.64,2.46 0,0.03 0.05999,0.09001 0.10002,0.09999 z m -6.25003,1.81 c -0.15001,-0.09999 -0.67,-0.54999 -0.69001,-0.11999 -0.02998,0.61999 0.47001,1.08001 0.74003,1.59001 0.27999,0.53999 0.67999,1 1.33999,0.74998 0.45998,-0.17999 0.96999,-0.59999 1.34,-0.92 0.33998,-0.3 0.44,-0.93998 0.45,-1.36999 0.02999,-0.64 -0.25,-1.97 -1.17,-1.66001 -0.28,0.74001 0.63,0.93001 0.16,1.56 -0.58,0.05001 -0.36,-0.53 -0.94,-0.47999 -0.58002,0.36 0.18001,1.08999 -0.19,1.52002 -0.30001,-0.01003 -0.48999,-0.21003 -0.61,-0.47002 -0.12999,-0.26001 -0.22001,-0.25 -0.43001,-0.40001 z M -38.28003,19.84 c 0.42,-0.60999 -0.10002,-1.62 -0.49,-2.11998 -0.41001,-0.55002 -1.56,-0.19002 -2.10001,0.02 -0.67999,0.26999 -1.23999,0.68999 -0.83,1.38998 0.02,0.04001 0.17001,0.41001 0.19001,0.62 0.04999,0.54001 0.11001,1.25002 0.80999,0.79001 0.26001,-0.12999 -0.51999,-1.43999 -0.48,-1.59999 0.05,-0.16001 0.17,-0.17002 0.34999,-0.23002 0.73,0.4 0.07001,1.76002 1.17002,1.50002 0.38,-0.38 -0.15001,-1.11 0.16998,-1.34001 0.33,-0.23001 0.37001,0.91 0.98002,1.03 0.03998,0.02 0.21,-0.03 0.23,-0.06001 z"
       style="fill:#c8161e;fill-opacity:1;fill-rule:evenodd;stroke:none"
       transform="matrix(1.3333333,0,0,-1.3333333,66.666667,66.666667)" />
    <path
       id="path8"
       d="m -2.53998,20.56001 -1.37001,-0.66 0.78,-1.70001 1.37001,0.66 -0.78,1.70001 z"
       style="fill:#c8161e;fill-opacity:1;fill-rule:evenodd;stroke:none"
       transform="matrix(1.3333333,0,0,-1.3333333,66.666667,66.666667)" />
    <path
       id="path9"
       d="M -4.34999,15.54001 V 13.64 h 1.5 v 1.90001 z"
       style="fill:#c8161e;fill-opacity:1;fill-rule:evenodd;stroke:none"
       transform="matrix(1.3333333,0,0,-1.3333333,66.666667,66.666667)" />
    <path
       id="path10"
       d="m -4.34999,12.65 v -1.9 h 1.5 v 1.9 z"
       style="fill:#c8161e;fill-opacity:1;fill-rule:evenodd;stroke:none"
       transform="matrix(1.3333333,0,0,-1.3333333,66.666667,66.666667)" />
    <path
       id="path11"
       d="M -4.34999,9.76 V 7.85999 h 1.5 V 9.76 Z"
       style="fill:#c8161e;fill-opacity:1;fill-rule:evenodd;stroke:none"
       transform="matrix(1.3333333,0,0,-1.3333333,66.666667,66.666667)" />
    <path
       id="path12"
       d="m -12.62,17.28 c 2.66,0.14 5.54,1.04002 8.05001,2.31001 L -3.78998,17.86 C -6.54999,16.53 -9.66,15.65001 -12.17,15.52 Z"
       style="fill:#c8161e;fill-opacity:1;fill-rule:evenodd;stroke:none"
       transform="matrix(1.3333333,0,0,-1.3333333,66.666667,66.666667)" />
    <path
       id="path13"
       d="M -13.75,15.54001 V 13.64 h 8.71002 v 1.90001 z"
       style="fill:#c8161e;fill-opacity:1;fill-rule:evenodd;stroke:none"
       transform="matrix(1.3333333,0,0,-1.3333333,66.666667,66.666667)" />
    <path
       id="path14"
       d="m -13.75,12.65 v -1.9 h 8.71002 v 1.9 z"
       style="fill:#c8161e;fill-opacity:1;fill-rule:evenodd;stroke:none"
       transform="matrix(1.3333333,0,0,-1.3333333,66.666667,66.666667)" />
    <path
       id="path15"
       d="M -13.75,9.76 V 7.85999 h 8.71002 V 9.76 Z"
       style="fill:#c8161e;fill-opacity:1;fill-rule:evenodd;stroke:none"
       transform="matrix(1.3333333,0,0,-1.3333333,66.666667,66.666667)" />
    <path
       id="path16"
       d="m 3.01999,21.22 h 3.31 V 7.83998 h -3.31 V 21.22 Z m -4.78998,1.23001 H 1.93999 V 7.83998 h -3.70998 v 14.61003 z m 1.15001,-1.89 v -0.66 H 0.8 v 0.66 h -1.41998 z m 0,-1.45001 V 18.45001 H 0.8 V 19.11 h -1.41998 z m 0,-1.45 V 17.00002 H 0.8 V 17.66 h -1.41998 z m 0,-1.45 V 15.55 H 0.8 v 0.66 h -1.41998 z m 4.58997,2.9 V 18.45001 H 5.38998 V 19.11 H 3.96999 Z m 0,-1.45 V 17.00002 H 5.38998 V 17.66 H 3.96999 Z m 0,-1.45 v -0.66 h 1.41999 v 0.66 z"
       style="fill:#c8161e;fill-opacity:1;fill-rule:evenodd;stroke:none"
       transform="matrix(1.3333333,0,0,-1.3333333,66.666667,66.666667)" />
    <path
       id="path17"
       d="M 6.27,18.33 9.01999,19.85002 14.82,9.34 12.06,7.81999 6.27,18.33 Z M 8.01,16.88 8.34,16.3 9.58,16.99 9.25,17.57 8.01,16.88 Z m 0.71,-1.27 0.33,-0.58 1.24,0.69 -0.33,0.58 z"
       style="fill:#c8161e;fill-opacity:1;fill-rule:evenodd;stroke:none"
       transform="matrix(1.3333333,0,0,-1.3333333,66.666667,66.666667)" />
    <path
       id="path18"
       d="m 19.71,-2.92998 h 0.54002 c 0.14998,0 0.27998,-0.1 0.27998,-0.22 v -0.62001 c 0.28001,0.16 0.47002,0.45 0.47002,0.78 v 2.60001 c 0,0.33999 -0.19001,0.63996 -0.47002,0.78996 v -0.50997 c 0,-0.11999 -0.11998,-0.22 -0.27998,-0.22 H 19.71 c -0.14999,0 -0.27,0.10001 -0.27,0.22 v 0.50997 c -0.27998,-0.15 -0.45999,-0.44997 -0.45999,-0.78996 v -2.60001 c 0,-0.34 0.19,-0.62 0.45999,-0.78 v 0.62001 c 0,0.12 0.12001,0.22 0.27,0.22 z M -15.56001,4.56 c -0.31,0 -0.60001,-0.02 -0.74999,-0.27 -0.48,-0.74001 -0.37,-2.79002 -0.37,-3.62002 h -2.24001 l -0.56,0.55001 V 4.96 c 0.53999,0.87 1.89999,1.51998 4.42001,1.51998 L -9.61998,6.47 C -9.44,6.47 -9.38,6.32 -9.43,6.23 L -12.42,0.66998 -15.56001,0.65999 V 4.56 v 0 z M -7.8,-0.31999 v 0 L -4.67998,5.52 C -4.6,5.65 -4.65999,5.76999 -4.76999,5.81999 L -6,6.45999 H 24.04001 V 4.29 c 0,0.07998 0.01001,-0.94001 -2.73001,-1.39002 C 21.05002,2.87 20.79001,2.8 20.53,2.76999 V 1.49 c 0.74002,-0.07002 1.33002,-0.70002 1.33002,-1.46002 v -3.46997 c 0,-0.75999 -0.59,-1.39001 -1.33002,-1.45999 v -1.94 C 21.27002,-6.90999 21.86002,-7.54 21.86002,-8.3 v -3.4 c 0,-0.81 -0.66002,-1.46 -1.46002,-1.46 h -0.82998 c -0.81001,0 -1.46002,0.66 -1.46002,1.46 v 3.4 c 0,0.76 0.58002,1.39001 1.33,1.46002 v 1.94 c -0.74998,0.06998 -1.33,0.7 -1.33,1.45999 v 3.46997 c 0,0.76 0.58002,1.39 1.33,1.46002 V 2.6 C 17.31,2.23999 15.24,1.60999 13.67001,-0.19998 H 11.77 c 0,0 -0.82,-0.38001 -1.67,-1.13001 -0.58,-0.50999 -1.18,-1.19 -1.53,-2.02 H 7.90999 C 7.90999,-3.36 7.6,-3.54 7.30998,-3.83998 7.30998,-3.85 7.3,-3.85 7.3,-3.85999 l -0.02,-0.02 C 7.27,-3.89 7.25998,-3.89 7.25998,-3.89998 v 0 C 7.25,-3.90999 7.23999,-3.90999 7.23999,-3.91998 v 0 c 0,-0.01 -0.00999,-0.02002 -0.02,-0.02002 v 0 C 7.21,-3.94998 7.21,-3.94998 7.19998,-3.96 c 0,0 0,0 0,0 0,0 -0.00998,-0.00999 -0.00998,-0.02 v 0 C 7.16998,-3.98999 7.16998,-4 7.16,-4 v 0 C 7.16,-4.00998 7.14,-4.01999 7.14,-4.01999 6.92,-4.29999 6.74998,-4.63998 6.81,-5.03 6.96,-5.98 7.25,-6.19998 8.12,-6.92998 9,-7.65999 10.59,-9.27 11.25,-10.15 c 0.57,-0.75 0.65,-1.83 0.2,-2.12 -0.08,-0.05 -0.17,-0.07 -0.27,-0.07 H 0.62999 v 0.01 H -9.86 c -0.73,0 -0.73,1.32 -0.07,2.19 0.65,0.88 2.26,2.49 3.13,3.22 0.88,0.73001 1.17,0.95001 1.31,1.90001 0.15,0.94999 -1.09,1.69 -1.09,1.69 h -0.65 c -0.22999,0.45999 -0.71,1.2 -1.16,1.56 h 8.53998 c 0.27,0 0.49,0.22 0.49,0.47999 v 0.50002 c 0,0.26999 -0.22,0.48999 -0.49,0.48999 H -7.8 Z M 20.53,-7.92998 V -8.41 c 0,-0.11998 -0.11998,-0.22 -0.26999,-0.22 h -0.53999 c -0.15,0 -0.27001,0.10002 -0.27001,0.22 v 0.48002 C 19.17001,-8.08 18.99002,-8.38 18.99002,-8.70999 V -11.24 c 0,-0.5 0.40998,-0.9 0.89999,-0.9 h 0.23 c 0.49001,0 0.89999,0.4 0.89999,0.9 v 2.53001 C 20.99002,-8.38 20.81001,-8.08 20.53,-7.92998 Z M -6.78,-9.32999 c -0.27,0 -0.49,-0.22001 -0.49,-0.49 V -10.32 c 0,-0.27 0.22,-0.48 0.49,-0.48 H 7.98 c 0.27,0 0.49,0.22 0.49,0.48 v 0.50001 c 0,0.26999 -0.22,0.49 -0.49,0.49 H -6.78 Z m 2.59001,3.18001 c -0.27,0 -0.48999,-0.22 -0.48999,-0.48002 v -0.49999 c 0,-0.26999 0.21999,-0.48999 0.48999,-0.48999 h 9.57997 c 0.27001,0 0.49001,0.22 0.49001,0.48999 V -6.63 c 0,0.26002 -0.22,0.48002 -0.49001,0.48002 h -9.57997 z m 0.37,3.01 c -0.27001,0 -0.48999,-0.22002 -0.48999,-0.49001 v -0.5 c 0,-0.26999 0.21998,-0.48999 0.48999,-0.48999 H 5.03 c 0.26,0 0.49,0.22 0.49,0.48999 v 0.5 c 0,0.26001 -0.22001,0.49001 -0.49,0.49001 h -8.84999 z m 7.67998,2.81999 c -0.27001,0 -0.49001,-0.21999 -0.49001,-0.48999 v -0.5 c 0,-0.26001 0.23002,-0.48 0.49001,-0.48 H 7.83 c 0.26,0 0.47998,0.21999 0.47998,0.48 v 0.5 c 0,0.27 -0.21998,0.48999 -0.47998,0.48999 z"
       style="fill:#c8161e;fill-opacity:1;fill-rule:evenodd;stroke:none"
       transform="matrix(1.3333333,0,0,-1.3333333,66.666667,66.666667)" />
    <path
       id="path19"
       d="m -17.87001,-12.22 -3.52999,1.89 -1.17002,-2.04 c 0.85,-0.58 1.26002,-1.45 1.37002,-2.46 l 6.3,-3.37 1.93,3.37 -3.15001,1.69 9.75003,18.17 C -6.32,5.09999 -6.34,5.18 -6.43,5.23 L -7.92,6.01999 C -8.03,6.07 -8.09,6.03998 -8.12999,5.96 l -9.74002,-18.18 z"
       style="fill:#c8161e;fill-opacity:1;fill-rule:evenodd;stroke:none"
       transform="matrix(1.3333333,0,0,-1.3333333,66.666667,66.666667)" />
    <path
       id="path20"
       d="m -12.04,-13.64 h 25.64002 c 0.51998,0 0.94998,-0.43002 0.94998,-0.95 v -5.89001 c 0,-0.53 -0.43,-0.95 -0.94998,-0.95 H -12.04 c -0.52,0 -0.95,0.42999 -0.95,0.95 V -14.59 c 0,0.53 0.43,0.95 0.95,0.95 v 0 z m 0.32,-0.83002 v 0 c -0.22,0 -0.4,-0.17999 -0.4,-0.39999 v -5.23001 c 0,-0.28999 0.24,-0.51998 0.51998,-0.51998 H 13.19 c 0.28002,0 0.52,0.22999 0.52,0.51998 v 5.1 c 0,0.29002 -0.23998,0.52002 -0.52,0.52002 h -24.91 v 0.01 z"
       style="fill:#c8161e;fill-opacity:1;fill-rule:evenodd;stroke:none"
       transform="matrix(1.3333333,0,0,-1.3333333,66.666667,66.666667)" />
    <path
       id="path21"
       d="m -8.37,-19.51 h -1.26 v 3.01 c 0,0.11998 -0.1,0.11998 -0.14,0.11998 -0.07,0 -0.13999,-0.01998 -0.2,-0.02998 l -0.94,-0.21 v 0.72 l 0.99,0.24999 c 0.04,0.01001 0.08,0.01999 0.13,0.04001 0.17002,0.04999 0.35,0.1 0.51,0.1 h 0.76 c 0.10002,0 0.15,-0.06 0.15,-0.16001 z"
       style="fill:#c8161e;fill-opacity:1;fill-rule:evenodd;stroke:none"
       transform="matrix(1.3333333,0,0,-1.3333333,66.666667,66.666667)" />
    <path
       id="path22"
       d="m -2.56,-18.58002 c 0,-0.11999 -0.11998,-0.22999 -0.24998,-0.22999 h -2.49001 c -0.14,0 -0.25,0.10001 -0.25,0.22999 V -18.08 c 0,0.13 0.11,0.22998 0.25,0.22998 h 2.49001 c 0.13998,0 0.24998,-0.11 0.24998,-0.22998 v -0.50002 z M -5.52,-16.44 c 0,0.11998 0.11,0.22 0.25,0.22 h 2.41001 c 0.14,0 0.25,-0.10002 0.25,-0.22 v -0.50002 c 0,-0.11998 -0.11,-0.22998 -0.25,-0.22998 H -5.27 c -0.14,0 -0.25,0.09998 -0.25,0.22998 V -16.44 Z m 3.78001,-1.05002 -0.03,0.01002 -0.09,0.02999 0.07999,0.03999 0.03002,0.02002 c 0.19999,0.09999 0.32,0.31 0.32,0.53998 V -16.11 c 0,0.32 -0.29001,0.59 -0.62001,0.59 H -6.14 c -0.33,0 -0.58998,-0.26001 -0.58998,-0.59 v -0.74002 c 0,-0.22998 0.12998,-0.43999 0.33,-0.53998 l 0.03,-0.02002 0.07998,-0.03999 -0.07998,-0.02999 -0.03,-0.01002 c -0.22,-0.07998 -0.37001,-0.31 -0.37001,-0.56 v -0.86999 c 0,-0.33001 0.24999,-0.58999 0.55,-0.58999 h 4.31 c 0.3,0 0.55,0.25998 0.55,0.58999 v 0.86999 c -0.00999,0.25 -0.16,0.47 -0.38,0.56 z"
       style="fill:#c8161e;fill-opacity:1;fill-rule:evenodd;stroke:none"
       transform="matrix(1.3333333,0,0,-1.3333333,66.666667,66.666667)" />
    <path
       id="path23"
       d="m 4.34,-17.01001 c 0,-0.13 -0.11,-0.22999 -0.26001,-0.22999 H 1.61998 c -0.14,0 -0.25,0.09999 -0.25,0.22999 V -16.44 c 0,0.11998 0.12002,0.22 0.25,0.22 v 0 H 4.09 c 0.14,0 0.25999,-0.11 0.25999,-0.22 v -0.57001 z M 5.00998,-15.52 h -4.31 c -0.3,0 -0.55,-0.26001 -0.55,-0.59 v -1.26 c 0,-0.32002 0.25,-0.59002 0.55,-0.59002 h 1.69 1.69001 c 0.14,0 0.26001,-0.09998 0.26001,-0.23 v -0.39999 C 4.34,-18.71 4.23,-18.82 4.07999,-18.82 H 1.61998 c -0.09999,0 -0.17999,0.05 -0.22,0.12998 h -1.25 V -18.93 c 0,-0.32002 0.25,-0.59002 0.55,-0.59002 h 4.31 c 0.3,0 0.55002,0.26002 0.55002,0.59002 v 2.80999 c -0.01001,0.34 -0.25002,0.60001 -0.55002,0.60001 z"
       style="fill:#c8161e;fill-opacity:1;fill-rule:evenodd;stroke:none"
       transform="matrix(1.3333333,0,0,-1.3333333,66.666667,66.666667)" />
    <path
       id="path24"
       d="m 8.29,-18.02 c 0,0.12999 0.10998,0.22999 0.25,0.22999 h 2.47 c 0.14,0 0.25,-0.1 0.25,-0.22999 v -0.57001 C 11.26,-18.71 11.15,-18.82 11.01,-18.82 v 0 H 8.54 c -0.13,0 -0.25,0.11 -0.25,0.22999 V -18.02 Z M 7.61998,-19.51 H 11.93 c 0.3,0 0.55,0.25998 0.55,0.58999 V -17.66 c 0,0.33 -0.25,0.58998 -0.55,0.58998 h -1.69 -1.7 c -0.13,0 -0.25,0.11 -0.25,0.23002 v 0.4 c 0,0.11998 0.10998,0.22 0.25,0.22 h 2.47 c 0.1,0 0.18998,-0.05002 0.22,-0.13 h 1.24 v 0.24 c 0,0.32999 -0.25,0.59 -0.55,0.59 H 7.61998 C 7.32,-15.52 7.07,-15.78001 7.07,-16.11 v -2.81001 c 0,-0.33001 0.25,-0.58999 0.54998,-0.58999 z"
       style="fill:#c8161e;fill-opacity:1;fill-rule:evenodd;stroke:none"
       transform="matrix(1.3333333,0,0,-1.3333333,66.666667,66.666667)" />
    <path
       id="path25"
       d="m -43.84004,-1.78 c -0.02001,0.30002 0.01,1.00002 0.02,1.48001 0.29001,-0.03999 0.62999,-0.06 0.98001,-0.08 v -0.03999 c -0.31001,-0.38002 -0.51002,-0.88001 -0.48002,-1.44001 0.02,-0.47999 0.28003,-0.78999 0.70002,-0.77 0.29998,0.01001 0.47998,0.15001 0.67998,0.43001 0.30002,0.41998 0.47,0.92 0.83002,1.39 0.39999,0.50999 0.78998,0.63 1.27998,0.66 0.47,0.01999 1.41002,-0.20001 1.49001,-1.98001 0.01001,-0.33 0.02,-0.86 -0.01,-1.31 -0.25001,0.05999 -0.61001,0.12 -0.94,0.16001 v 0.03999 c 0.26,0.23999 0.45999,0.51001 0.43001,1.13 -0.03002,0.59 -0.37001,0.87 -0.72002,0.86001 -0.42,-0.02001 -0.65999,-0.09 -1.16,-1.12 -0.62,-1.28002 -1.01999,-1.34001 -1.51999,-1.36 -0.60001,-0.01002 -1.5,0.27998 -1.58,1.94998 z"
       style="fill:#c8161e;fill-opacity:1;fill-rule:evenodd;stroke:none"
       transform="matrix(1.3333333,0,0,-1.3333333,66.666667,66.666667)" />
    <path
       id="path26"
       d="m -40.26003,-8.83998 c -0.62001,-0.10002 -2.03001,-0.36 -2.61001,-0.57002 -0.03,0.32 -0.05,0.43 -0.09001,0.66 -0.03,0.18 -0.05998,0.35002 -0.14,0.74 0.75001,0.06002 1.86001,0.21 2.44002,0.31 -0.04001,0.39002 -0.07,0.58 -0.12001,0.88001 -0.05001,0.29999 -0.1,0.58 -0.16999,0.91 -0.87001,-0.16001 -1.62002,-0.28999 -2.41002,-0.50999 -0.03,0.29998 -0.05998,0.52998 -0.08999,0.65998 -0.03,0.19001 -0.05001,0.34002 -0.14,0.73 0.73999,0.04001 2.05,0.23 2.64001,0.32001 0.56998,0.09001 2.45998,0.36 2.62999,0.65999 l 0.03,0.01002 c 0.03999,-0.32002 0.07001,-0.53001 0.10001,-0.76002 0.04001,-0.23998 0.08999,-0.47998 0.15001,-0.72 -0.54003,0.01002 -1.30002,-0.11998 -2.30002,-0.28 0.05,-0.43 0.08001,-0.59998 0.12999,-0.9 0.05,-0.3 0.07,-0.44 0.17003,-0.89 1.19999,0.21 1.74998,0.29 2.21998,0.58 h 0.01999 c 0.02001,-0.27 0.05002,-0.46 0.11,-0.77 0.03002,-0.23 0.10002,-0.54 0.14002,-0.72998 -0.71,-0.03002 -1.98,-0.22 -2.71,-0.33 z"
       style="fill:#c8161e;fill-opacity:1;fill-rule:evenodd;stroke:none"
       transform="matrix(1.3333333,0,0,-1.3333333,66.666667,66.666667)" />
    <path
       id="path27"
       d="m -37.89005,-11.38 -0.01998,0.03 c -0.69002,0.02 -1.28,0.03 -1.92002,0.01 0.05001,-0.2 0.08002,-0.36 0.14,-0.54 0.08,-0.27 0.13001,-0.37 0.2,-0.56 0.53,0.33 1.09003,0.7 1.6,1.06 z m -3.52,-2.99 c -0.06999,0.25 -0.13998,0.46 -0.24998,0.72 0.55,0.19 1.33,0.68 1.69998,0.91 -0.05998,0.24998 -0.12999,0.5 -0.2,0.73 -0.07999,0.23 -0.16998,0.48 -0.22998,0.66 -0.45,0 -1.41002,-0.05 -1.89001,-0.29 -0.07,0.27 -0.10001,0.41 -0.15999,0.61 -0.06002,0.21 -0.13002,0.4 -0.21001,0.62 0.32999,-0.08 0.92001,-0.14 1.17,-0.16 0.51999,-0.04 1.25,-0.09 1.82001,-0.11 0.51998,-0.02 1.35,-0.05 1.98999,-0.06 0.17999,-0.01 0.49,-0.02 0.65001,0.1 l 0.03999,0.01 c 0.08002,-0.25 0.15001,-0.45 0.2,-0.61 0.08001,-0.23 0.16001,-0.45 0.26001,-0.68 -0.15001,-0.07 -0.44002,-0.24 -0.68,-0.39 -0.49002,-0.31 -1.09001,-0.7 -1.54002,-1.01 -0.76998,-0.51 -1.2,-0.81 -1.58,-1.09 -0.15998,-0.12 -0.55999,-0.42 -0.87998,-0.76 -0.08001,0.33 -0.14001,0.56998 -0.21002,0.8 z"
       style="fill:#c8161e;fill-opacity:1;fill-rule:evenodd;stroke:none"
       transform="matrix(1.3333333,0,0,-1.3333333,66.666667,66.666667)" />
    <path
       id="path28"
       d="m -36.77003,-18.78001 c -0.34,-0.14999 -1.72002,-0.76999 -2.30002,-1.10001 -0.13999,0.32001 -0.29998,0.62002 -0.46999,0.88 0.42,0.64 1.24001,1.79 1.61002,2.29002 l 1.10998,1.51 -0.01,0.03 -1.41001,-0.65 c -0.26999,-0.12002 -1.68,-0.86 -2.14001,-1.22 -0.06999,0.18998 -0.12998,0.34998 -0.20999,0.51998 -0.08,0.17002 -0.17,0.35002 -0.24999,0.51002 0.78,0.15 2.69001,0.99 3.05999,1.15998 0.28001,0.12002 1.45001,0.62002 1.83001,1.03002 l 0.04,0.01998 c 0.08,-0.21998 0.19,-0.45998 0.3,-0.70998 0.11,-0.25001 0.22998,-0.49002 0.33,-0.67001 -0.28,-0.31001 -0.89,-1.05 -1.18001,-1.47 -0.56999,-0.82001 -0.93998,-1.31999 -1.25,-1.76999 l 0.01001,-0.02 0.93999,0.42999 c 0.55,0.25 1.94,0.98 2.20001,1.26999 0.05,-0.14999 0.14,-0.36998 0.22,-0.53998 0.09999,-0.23 0.11,-0.25 0.25,-0.48001 -0.72,-0.18001 -2.29002,-0.84001 -2.68,-1.02 z"
       style="fill:#c8161e;fill-opacity:1;fill-rule:evenodd;stroke:none"
       transform="matrix(1.3333333,0,0,-1.3333333,66.666667,66.666667)" />
    <path
       id="path29"
       d="m -34.94003,-24.35002 c -0.18,-0.09999 -0.56,-0.32001 -0.92,-0.59999 -0.53,0.56997 -0.81999,0.95999 -1.2,1.56 -0.92001,1.44999 -0.74002,2.58999 0.95,3.66001 1.03999,0.65998 2.53999,1.04999 3.80002,-0.93002 0.34997,-0.55 0.70997,-1.2 0.87999,-1.53 -0.37001,-0.09999 -0.66001,-0.20998 -1,-0.36999 l -0.04001,0.05999 c 0.14001,0.44001 0.06,1.04 -0.31999,1.63001 -0.58001,0.92 -1.54001,0.78 -2.64,0.09 -1.53003,-0.97001 -1.54001,-1.69001 -1,-2.54001 0.24998,-0.39 0.48999,-0.29999 0.68998,-0.15999 l 0.48001,0.3 c 0.22001,0.15 0.5,0.31 0.67,0.65 l 0.04,0.01 c 0.11,-0.2 0.25,-0.42999 0.38,-0.64 0.17,-0.26999 0.22,-0.34999 0.39,-0.58 -0.27,-0.09999 -0.81,-0.37999 -1.16,-0.61 z"
       style="fill:#c8161e;fill-opacity:1;fill-rule:evenodd;stroke:none"
       transform="matrix(1.3333333,0,0,-1.3333333,66.666667,66.666667)" />
    <path
       id="path30"
       d="m -30.24002,-27.82002 c -0.48001,-0.4 -1.56001,-1.34999 -1.95001,-1.83 -0.19001,0.25999 -0.26,0.34999 -0.41001,0.52999 -0.11999,0.14 -0.22999,0.26999 -0.50998,0.56 0.61998,0.43001 1.49999,1.13001 1.94999,1.51 -0.23998,0.32002 -0.36,0.46002 -0.54999,0.69 -0.2,0.23001 -0.39002,0.44002 -0.62,0.69 -0.67001,-0.58 -1.24002,-1.07999 -1.81001,-1.67999 -0.17,0.24 -0.32001,0.42001 -0.41,0.53 -0.12,0.14999 -0.23,0.27 -0.5,0.54999 0.62001,0.41001 1.65002,1.24002 2.11,1.62002 0.44,0.37999 1.93,1.56999 1.92001,1.90999 l 0.01999,0.02 c 0.2,-0.25999 0.32001,-0.41999 0.48,-0.6 0.16,-0.18999 0.32002,-0.37001 0.50001,-0.54999 -0.47002,-0.26001 -1.06001,-0.77 -1.84001,-1.42001 0.25999,-0.34 0.38,-0.47001 0.57001,-0.71001 0.18998,-0.22998 0.27999,-0.34 0.59999,-0.67998 0.92001,0.78998 1.36001,1.14 1.61001,1.64 l 0.02001,0.01 c 0.14999,-0.22001 0.27998,-0.37 0.47998,-0.60001 0.15001,-0.17999 0.36001,-0.40999 0.50001,-0.55 -0.59999,-0.37 -1.6,-1.18001 -2.16,-1.64 z"
       style="fill:#c8161e;fill-opacity:1;fill-rule:evenodd;stroke:none"
       transform="matrix(1.3333333,0,0,-1.3333333,66.666667,66.666667)" />
    <path
       id="path31"
       d="m -26.92001,-28.81003 -0.02002,0.03 c -0.59999,-0.32999 -1.11998,-0.63998 -1.66001,-0.98 0.14002,-0.14999 0.26001,-0.27 0.40003,-0.38998 0.19998,-0.19002 0.28999,-0.26002 0.44999,-0.38 0.29,0.54998 0.58001,1.14997 0.83001,1.71998 z m -1.49002,-4.36999 c -0.19001,0.16999 -0.35999,0.31999 -0.57999,0.48999 0.37001,0.44999 0.8,1.26001 0.98999,1.65002 -0.17999,0.18997 -0.36,0.35999 -0.53999,0.51998 -0.18001,0.16 -0.38001,0.33 -0.53002,0.44999 -0.38998,-0.22999 -1.19999,-0.76997 -1.47998,-1.20999 -0.2,0.19 -0.28999,0.3 -0.45001,0.44002 -0.17,0.14998 -0.32001,0.27998 -0.5,0.42998 0.32001,0.11 0.86999,0.35002 1.09,0.46002 0.47,0.22998 1.12001,0.55998 1.63,0.82998 0.45001,0.24001 1.17999,0.65 1.73,0.97002 0.16,0.09 0.43002,0.22998 0.51001,0.40997 l 0.03001,0.03002 c 0.18999,-0.18001 0.36,-0.32001 0.48,-0.42 0.17997,-0.16 0.36999,-0.3 0.56999,-0.45001 -0.10001,-0.14 -0.25,-0.43 -0.37999,-0.67998 -0.26001,-0.51001 -0.58,-1.16 -0.82001,-1.66002 -0.39001,-0.83 -0.61999,-1.31 -0.8,-1.74 -0.08,-0.19001 -0.26001,-0.64998 -0.37001,-1.1 -0.22998,0.25002 -0.4,0.42 -0.58,0.58001 z"
       style="fill:#c8161e;fill-opacity:1;fill-rule:evenodd;stroke:none"
       transform="matrix(1.3333333,0,0,-1.3333333,66.666667,66.666667)" />
    <path
       id="path32"
       d="m -26.42001,-34.73003 c -0.2,0.15 -0.34002,0.25 -0.63002,0.44001 0.65002,0.65998 1.33001,1.56999 1.71002,2.07 0.53998,0.71999 1.31,1.69001 1.42,2.27999 l 0.01,0.02 c 0.2,-0.17 0.37001,-0.31 0.56,-0.45 0.20001,-0.13998 0.42001,-0.3 0.66,-0.46 -0.50999,-0.49001 -1.40001,-1.69 -1.58999,-1.94 -0.30002,-0.4 -1.17,-1.54 -1.62,-2.4 -0.27,0.24001 -0.40001,0.34999 -0.52,0.44 z"
       style="fill:#c8161e;fill-opacity:1;fill-rule:evenodd;stroke:none"
       transform="matrix(1.3333333,0,0,-1.3333333,66.666667,66.666667)" />
    <path
       id="path33"
       d="m -20.15001,-35.56003 c -0.37001,-0.64 -0.77999,-1.36999 -0.93001,-1.63 -0.44999,-0.79001 -1.17,-1.12 -2.89,-0.37001 l 0.16999,0.48001 c 0.70001,-0.31 1.12002,-0.31 1.59001,0.38 0.17001,0.23999 0.56001,0.89998 0.85,1.4 0.5,0.86 1.31,2.12001 1.32002,2.69999 l 0.02,0.04001 c 0.24998,-0.16 0.45999,-0.3 0.65998,-0.41 0.2,-0.12 0.4,-0.22 0.65002,-0.35001 -0.53,-0.59999 -1.15002,-1.72999 -1.44001,-2.23999 z"
       style="fill:#c8161e;fill-opacity:1;fill-rule:evenodd;stroke:none"
       transform="matrix(1.3333333,0,0,-1.3333333,66.666667,66.666667)" />
    <path
       id="path34"
       d="m -18.83002,-39.33003 c -0.31998,0.18001 -0.47,0.25998 -0.59999,0.32998 -0.23001,0.11 -0.38,0.17 -0.69999,0.32003 0.51,0.76999 1.02,1.78997 1.29998,2.34999 0.40001,0.81 0.98,1.90001 0.98,2.50999 l 0.01002,0.02001 c 0.22,-0.12999 0.42,-0.23 0.62998,-0.34 0.21,-0.11 0.46002,-0.21001 0.73002,-0.33 -0.41001,-0.56999 -1.07,-1.92 -1.2,-2.19 -0.22001,-0.45 -0.86001,-1.73999 -1.15002,-2.67 z"
       style="fill:#c8161e;fill-opacity:1;fill-rule:evenodd;stroke:none"
       transform="matrix(1.3333333,0,0,-1.3333333,66.666667,66.666667)" />
    <path
       id="path35"
       d="m -14.34,-36.59003 -0.03,0.01 c -0.44,-0.52998 -0.81001,-1 -1.19001,-1.51999 0.19001,-0.08999 0.33001,-0.15001 0.50999,-0.22 0.26002,-0.09999 0.37002,-0.13 0.56,-0.18999 0.08002,0.62999 0.12002,1.29999 0.15002,1.92 v 0 z m 0.21,-4.61 c -0.24,0.09 -0.46,0.16999 -0.72002,0.23998 0.18001,0.55 0.28002,1.47 0.32002,1.90002 -0.23001,0.11 -0.47002,0.2 -0.69,0.29 -0.23001,0.07998 -0.48,0.16 -0.66,0.22 -0.28002,-0.34999 -0.82,-1.15 -0.94,-1.67 -0.26,0.11 -0.38,0.16998 -0.57,0.25 -0.21002,0.07998 -0.41002,0.13998 -0.63,0.20999 0.25999,0.22 0.67999,0.65001 0.85,0.83002 0.35,0.37999 0.84,0.92997 1.20998,1.36998 0.34002,0.39001 0.87001,1.03001 1.27,1.54001 0.11,0.13999 0.31,0.38 0.32002,0.57 l 0.02,0.05001 c 0.25,-0.10001 0.45,-0.16001 0.6,-0.21001 0.23,-0.08002 0.45,-0.15 0.7,-0.21001 -0.03,-0.16 -0.08,-0.48999 -0.1,-0.78001 -0.06,-0.56998 -0.11,-1.29 -0.15,-1.83998 -0.06,-0.92002 -0.09,-1.45002 -0.1,-1.92002 -0.01,-0.19999 -0.01,-0.69998 0.06,-1.16 -0.34,0.14 -0.56,0.23001 -0.79,0.32002 z"
       style="fill:#c8161e;fill-opacity:1;fill-rule:evenodd;stroke:none"
       transform="matrix(1.3333333,0,0,-1.3333333,66.666667,66.666667)" />
    <path
       id="path36"
       d="m -10.85,-39.47005 c -0.29,-1.22 -0.15,-2.14998 0.78,-2.36 1.09,-0.25 1.53,0.77002 1.77,1.82001 0.24,0.99001 0.33,2.19 -0.73,2.44 -1.06,0.25 -1.54,-0.73999 -1.82,-1.90001 z m 3.79002,-0.81999 c -0.28002,-1.21001 -0.97002,-2.58 -3.14,-2.07001 -1.32002,0.31 -2.41002,0.97 -1.88002,3.19002 0.3,1.28999 0.98,2.65 3.14,2.14 1.86,-0.44002 2.28001,-1.55002 1.88002,-3.26001 z"
       style="fill:#c8161e;fill-opacity:1;fill-rule:evenodd;stroke:none"
       transform="matrix(1.3333333,0,0,-1.3333333,66.666667,66.666667)" />
    <path
       id="path37"
       d="m -0.24998,-38.88004 h -0.05001 c -0.17,0.1 -0.73999,0.24001 -1.42999,0.27999 -0.01001,-0.16998 -0.10001,-1.23998 -0.16002,-2.39 -0.05998,-1.12999 -0.01999,-2.28999 0.02,-2.47 -0.32998,0.04002 -0.42999,0.05 -0.71,0.06003 -0.24999,0.01997 -0.43999,0.02998 -0.74999,0.01997 0.16001,0.69 0.25,2.17 0.27999,2.71001 0.03001,0.56999 0.07,1.59999 0.10002,2.14001 -0.59002,0.03 -1.34002,0.01 -1.56,-0.11 H -4.56 c 0.06002,0.23 0.13,0.54999 0.14002,0.75999 0.76998,-0.08999 1.41,-0.13999 2.11,-0.17999 0.77,-0.04001 1.50998,-0.08002 2.27,-0.07001 -0.08,-0.16999 -0.15001,-0.47999 -0.21,-0.75 z"
       style="fill:#c8161e;fill-opacity:1;fill-rule:evenodd;stroke:none"
       transform="matrix(1.3333333,0,0,-1.3333333,66.666667,66.666667)" />
    <path
       id="path38"
       d="m 1.25998,-40.86003 c 0.09001,-1.25 0.48001,-2.10002 1.43002,-2.03002 1.11998,0.07001 1.23998,1.18001 1.16,2.26 -0.06002,1.02 -0.33001,2.20001 -1.41001,2.12002 -1.08,-0.07002 -1.25,-1.16001 -1.18001,-2.35 z m 3.87001,0.33 c 0.08001,-1.24002 -0.16999,-2.75001 -2.39,-2.90001 -1.35001,-0.09001 -2.58,0.23001 -2.73001,2.50002 -0.08997,1.31997 0.17,2.81999 2.38,2.95999 1.90002,0.11998 2.63001,-0.81001 2.74001,-2.56 z"
       style="fill:#c8161e;fill-opacity:1;fill-rule:evenodd;stroke:none"
       transform="matrix(1.3333333,0,0,-1.3333333,66.666667,66.666667)" />
    <path
       id="path39"
       d="m 10.21,-39.67004 c 0.07,-0.36 0.36,-1.83999 0.55,-2.47998 -0.35,-0.06003 -0.67,-0.15003 -0.96,-0.26003 -0.53,0.55002 -1.46,1.61 -1.86,2.08002 l -1.23001,1.42 -0.03001,-0.01001 0.31002,-1.51999 c 0.06,-0.29 0.46999,-1.84001 0.71,-2.36002 -0.2,-0.01999 -0.36,-0.05 -0.55002,-0.09 -0.17999,-0.02999 -0.37999,-0.08999 -0.54998,-0.13999 0.03998,0.8 -0.35,2.84001 -0.43002,3.24002 C 6.10999,-39.48003 5.89,-38.24004 5.58,-37.77003 l -0.01001,0.04 c 0.24001,0.03 0.50001,0.07999 0.76,0.12998 0.27001,0.05002 0.52001,0.11 0.72999,0.17003 C 7.3,-37.77003 7.88,-38.54004 8.21999,-38.91003 8.89,-39.65004 9.29,-40.12004 9.67,-40.53003 l 0.02,0.01 -0.2,1.01002 c -0.12,0.58999 -0.51,2.1 -0.74,2.43 0.15,0.01 0.39,0.05 0.57,0.08999 0.25,0.05001 0.27,0.06002 0.53,0.14 -0.01,-0.72 0.28,-2.40999 0.36,-2.82 z"
       style="fill:#c8161e;fill-opacity:1;fill-rule:evenodd;stroke:none"
       transform="matrix(1.3333333,0,0,-1.3333333,66.666667,66.666667)" />
    <path
       id="path40"
       d="m 16.05002,-39.17003 c 0.05998,-0.2 0.18998,-0.61999 0.36998,-1.03 -0.67998,-0.39001 -1.12,-0.58001 -1.79,-0.81001 -1.62998,-0.56001 -2.7,-0.13001 -3.35,1.75999 -0.41,1.17002 -0.44,2.72002 1.78,3.49002 0.61001,0.21 1.33,0.42 1.69,0.51 0.01001,-0.39 0.06,-0.7 0.13,-1.07001 l -0.05,-0.01999 c -0.4,0.23999 -1,0.29 -1.67,0.06998 -1.04,-0.35999 -1.11,-1.33 -0.69,-2.56 0.59,-1.70999 1.28,-1.87999 2.24,-1.55 0.43001,0.15001 0.4,0.40001 0.32,0.64 l -0.17998,0.54002 c -0.08002,0.25 -0.19002,0.54999 -0.48002,0.80001 v 0.03997 c 0.22,0.06002 0.48002,0.14002 0.71,0.22 0.30002,0.11002 0.39002,0.13002 0.66002,0.25 0.01999,-0.28999 0.17999,-0.87998 0.31,-1.27998 z"
       style="fill:#c8161e;fill-opacity:1;fill-rule:evenodd;stroke:none"
       transform="matrix(1.3333333,0,0,-1.3333333,66.666667,66.666667)" />
    <path
       id="path41"
       d="m 21.89001,-33.41003 c 0.28,-0.54 0.62,-1.18 0.93001,-1.71 0.5,-0.87001 0.5,-1.75001 -0.95001,-2.58 -1.51999,-0.87001 -2.2,-0.5 -2.75,0.47 -0.14,0.24999 -0.50999,0.92 -0.77001,1.37 -0.18,0.32001 -0.78,1.45 -1.2,1.69 l -0.01,0.02001 c 0.2,0.09999 0.44001,0.22999 0.66001,0.34999 0.21998,0.12001 0.39,0.22 0.65998,0.41 0.21001,-0.67 0.93001,-1.91 1.11002,-2.23 0.45999,-0.80999 0.76999,-1.33 0.96999,-1.51001 0.27999,-0.25001 0.71001,-0.29998 1.14,-0.05999 1,0.57 0.71999,1.18998 0.12001,2.24 -0.84,1.47 -1.14,2.03 -1.68001,2.5 0.16,0.08 0.31,0.15 0.56,0.29 0.22999,0.13 0.35,0.21 0.51001,0.32 0.19,-0.66998 0.51998,-1.25 0.69999,-1.57 z"
       style="fill:#c8161e;fill-opacity:1;fill-rule:evenodd;stroke:none"
       transform="matrix(1.3333333,0,0,-1.3333333,66.666667,66.666667)" />
    <path
       id="path42"
       d="m 26.74004,-31.17003 c 0.22,-0.29001 1.12999,-1.5 1.58,-1.99 -0.28003,-0.21 -0.54001,-0.43 -0.75002,-0.65 -0.71998,0.26 -2.02,0.81 -2.58999,1.05 l -1.73001,0.74001 -0.02001,-0.02 0.94,-1.23001 c 0.18001,-0.23 1.22,-1.44001 1.68003,-1.81 -0.17003,-0.11 -0.31003,-0.2 -0.46003,-0.31999 -0.13999,-0.11001 -0.30999,-0.24001 -0.44,-0.36001 -0.31999,0.73 -1.56,2.4 -1.81,2.72001 -0.19,0.25 -0.92999,1.26999 -1.41,1.54998 l -0.02001,0.03 c 0.2,0.13002 0.41001,0.28002 0.62002,0.45001 0.22,0.17002 0.42,0.33001 0.58999,0.48002 0.36,-0.2 1.22,-0.64002 1.69001,-0.83002 0.91999,-0.36998 1.49,-0.62 2.00999,-0.81999 l 0.02,0.01 -0.63,0.81999 c -0.35999,0.47 -1.37999,1.67002 -1.73,1.86 0.13001,0.08001 0.33001,0.22001 0.47001,0.33001 0.19999,0.15 0.22,0.17001 0.41001,0.35 0.33001,-0.62999 1.33001,-2.02 1.58001,-2.36 z"
       style="fill:#c8161e;fill-opacity:1;fill-rule:evenodd;stroke:none"
       transform="matrix(1.3333333,0,0,-1.3333333,66.666667,66.666667)" />
    <path
       id="path43"
       d="m 30.03003,-31.59003 c -0.17999,-0.17 -0.30002,-0.29001 -0.55002,-0.53999 -0.53998,0.74998 -1.31998,1.59 -1.73997,2.04999 -0.62003,0.66002 -1.44002,1.58999 -2.00002,1.80002 l -0.02,0.02 c 0.19999,0.15999 0.37001,0.31 0.55001,0.47 0.16999,0.17 0.35999,0.35999 0.56998,0.56999 0.39002,-0.58999 1.42,-1.68 1.63002,-1.90001 0.34,-0.37001 1.31999,-1.41999 2.07999,-2.02 -0.29001,-0.24001 -0.40999,-0.35001 -0.51999,-0.45 z"
       style="fill:#c8161e;fill-opacity:1;fill-rule:evenodd;stroke:none"
       transform="matrix(1.3333333,0,0,-1.3333333,66.666667,66.666667)" />
    <path
       id="path44"
       d="m 30.79002,-24.38004 c 0.24999,-0.44998 0.65,-1.11998 0.99001,-1.71998 0.34,-0.59999 1.03,-1.78 1.32999,-2.28999 -0.2,-0.22002 -0.4,-0.48002 -0.57,-0.74001 -0.84999,0.40001 -1.72,0.78 -2.61001,1.16 -0.69998,0.29001 -1.34998,0.58001 -1.81999,0.76 -0.27999,0.11 -0.69001,0.24 -0.87999,0.22999 l -0.02001,0.01999 c 0.17002,0.17003 0.36,0.37003 0.54,0.58 0.19001,0.21003 0.37001,0.42 0.52001,0.62001 0.15999,-0.14999 0.47001,-0.31999 0.67998,-0.44999 0.35002,-0.2 0.97002,-0.48001 1.64002,-0.78 0.5,-0.22 0.84999,-0.39002 1.27,-0.55 l 0.02001,0.03001 c -0.21001,0.36998 -0.66002,1.09999 -0.88001,1.43997 -0.56001,0.84003 -1,1.47 -1.44,1.75002 0.14999,0.15001 0.27,0.27 0.40999,0.42999 0.14,0.16002 0.25,0.28001 0.38,0.47002 0.12001,-0.35001 0.3,-0.69001 0.44,-0.96003 z"
       style="fill:#c8161e;fill-opacity:1;fill-rule:evenodd;stroke:none"
       transform="matrix(1.3333333,0,0,-1.3333333,66.666667,66.666667)" />
    <path
       id="path45"
       d="m 36.96005,-23.36002 c -0.49,-0.64001 -0.77002,-1.05 -1.08001,-1.49 -0.33001,-0.45999 -0.42,-0.59999 -0.93001,-1.34999 -0.61,0.56999 -1.23999,1.03 -2.09999,1.62999 -0.88001,0.62001 -1.95002,1.43001 -2.33001,1.40001 l -0.02,0.01 c 0.36,0.46001 0.8,1.09 1.05,1.44 0.2,0.28 0.55001,0.79002 1,1.45 0.09999,-0.15999 0.37,-0.40999 0.53,-0.53 l -0.02,-0.03 c -0.35001,-0.25999 -0.81,-0.80999 -1.29,-1.47999 0.39,-0.35001 1.12,-0.84 1.46,-1.08 0.3,0.42999 0.54,0.77 0.78,1.25999 0.15,-0.15999 0.37001,-0.34999 0.56001,-0.5 -0.43001,-0.34999 -0.68001,-0.73 -0.91001,-1.04999 l 0.76999,-0.55 c 0.73001,-0.52001 0.91001,-0.51001 1.19001,-0.11 0.37001,0.50999 0.67001,1.06999 0.74,1.53 l 0.03,0.03999 c 0.19002,-0.25 0.37001,-0.40999 0.57002,-0.59 z"
       style="fill:#c8161e;fill-opacity:1;fill-rule:evenodd;stroke:none"
       transform="matrix(1.3333333,0,0,-1.3333333,66.666667,66.666667)" />
    <path
       id="path46"
       d="m 34.28003,-18.23001 c -0.12,-0.22 -0.2,-0.37001 -0.25,-0.53 0.31,-0.21001 0.73,-0.43001 0.85001,-0.49001 0.29998,-0.16998 0.47999,-0.27 0.75999,-0.42999 0.10001,0.17001 0.16002,0.26999 0.24001,0.4 0.25999,0.47999 0.22999,0.91999 -0.49999,1.31999 -0.63002,0.33 -0.94002,0.04001 -1.10002,-0.26999 z m 5.09,-0.80999 c -0.11,-0.22 -0.2,-0.41001 -0.33999,-0.68002 -0.41001,0.14 -0.86001,0.24001 -1.37001,0.34 -0.49998,0.10001 -0.87999,0.15001 -1.08999,0.06 -0.20001,-0.09 -0.31001,-0.29998 -0.47,-0.60998 0.39001,-0.2 1.70001,-0.89 2.25,-1.04002 -0.13001,-0.19999 -0.25,-0.41999 -0.38001,-0.64 -0.11998,-0.22 -0.22,-0.42999 -0.31999,-0.64 -0.62001,0.47001 -1.93001,1.17 -2.34001,1.4 -0.7,0.38 -1.98999,1.11 -2.41001,1.11 L 32.88004,-19.73 c 0.20999,0.38 0.36999,0.67 0.58,1.03998 0.22999,0.43002 0.39999,0.76002 0.64999,1.22 0.52001,0.95 1.16,0.97002 1.74001,0.66001 0.59999,-0.33 0.93,-0.97 0.62999,-1.75999 l 0.02,-0.01002 c 0.22,0.38002 0.53,0.48 0.88002,0.44001 0.24999,-0.02999 0.31998,-0.04 0.74999,-0.11001 0.56001,-0.07998 1.23999,-0.19999 1.58,-0.11 l 0.03999,-0.02 c -0.16,-0.28999 -0.27998,-0.47998 -0.38,-0.65998 z"
       style="fill:#c8161e;fill-opacity:1;fill-rule:evenodd;stroke:none"
       transform="matrix(1.3333333,0,0,-1.3333333,66.666667,66.666667)" />
    <path
       id="path47"
       d="m 40.61005,-16.38002 c -0.11,-0.27998 -0.43001,-0.90999 -0.64002,-1.32998 -0.24998,0.16 -0.55,0.32 -0.86999,0.47999 l 0.02,0.04001 c 0.44,0.20999 0.82999,0.58998 1.04001,1.09999 0.17999,0.44 0.07999,0.83001 -0.31,0.99001 -0.28001,0.11 -0.50001,0.07 -0.8,-0.11 -0.45,-0.26002 -0.82001,-0.64002 -1.33002,-0.91001 -0.57001,-0.29999 -0.97999,-0.24999 -1.44,-0.06999 -0.44,0.18 -1.18999,0.77 -0.52,2.42999 0.12001,0.31001 0.34001,0.79001 0.55,1.17999 0.2,-0.15998 0.51001,-0.35998 0.79001,-0.53998 l -0.01,-0.04 c -0.34001,-0.11002 -0.63,-0.28 -0.87001,-0.86 -0.21998,-0.55 -0.03,-0.94002 0.3,-1.07001 0.37999,-0.16001 0.62999,-0.18999 1.51999,0.53 1.10003,0.90001 1.49001,0.78 1.95002,0.59001 0.55999,-0.22 1.25,-0.87 0.62001,-2.41002 z"
       style="fill:#c8161e;fill-opacity:1;fill-rule:evenodd;stroke:none"
       transform="matrix(1.3333333,0,0,-1.3333333,66.666667,66.666667)" />
    <path
       id="path48"
       d="m 41.89005,-12.67 c -0.07001,-0.24 -0.12,-0.4 -0.2,-0.74 -0.85002,0.39 -1.93001,0.73 -2.53,0.91998 C 38.31003,-12.22 37.13004,-11.82 36.54002,-11.91 l -0.01999,0.01 c 0.09,0.24 0.15999,0.45 0.24001,0.68 0.06999,0.23 0.13001,0.49 0.20999,0.77 0.62,-0.32 2.06001,-0.74998 2.35002,-0.84 0.48,-0.15 1.84,-0.58 2.80999,-0.73 -0.13999,-0.35 -0.18999,-0.51 -0.23999,-0.65 z"
       style="fill:#c8161e;fill-opacity:1;fill-rule:evenodd;stroke:none"
       transform="matrix(1.3333333,0,0,-1.3333333,66.666667,66.666667)" />
    <path
       id="path49"
       d="m 38.73003,-6.10999 -0.01,-0.05001 c -0.13002,-0.16 -0.36,-0.69 -0.50002,-1.36998 0.16002,-0.03002 1.21001,-0.29001 2.33,-0.54002 1.10001,-0.23998 2.25002,-0.38 2.44002,-0.38 -0.09001,-0.33 -0.12001,-0.41 -0.18001,-0.7 -0.05,-0.24 -0.08999,-0.43 -0.13,-0.73 -0.66001,0.26002 -2.09999,0.59 -2.62999,0.71 -0.56,0.12 -1.57002,0.33002 -2.09,0.43 -0.12002,-0.56998 -0.22,-1.32 -0.14001,-1.56998 l -0.01,-0.05002 c -0.20998,0.1 -0.51999,0.22 -0.71999,0.26 0.20999,0.75 0.34999,1.37002 0.51001,2.06002 0.16998,0.74998 0.31998,1.47998 0.42998,2.22998 0.15001,-0.09 0.44002,-0.20999 0.7,-0.29999 z"
       style="fill:#c8161e;fill-opacity:1;fill-rule:evenodd;stroke:none"
       transform="matrix(1.3333333,0,0,-1.3333333,66.666667,66.666667)" />
    <path
       id="path50"
       d="M 39.14005,-0.74998 C 39.55003,-1.07999 39.98004,-1.38 41.51003,-2.36 c 0.52001,-0.02998 0.81002,-0.05998 1.19001,-0.05998 0.36,0 0.80999,0 1.06,0.05 -0.05,-0.30002 -0.06,-0.50002 -0.06999,-0.73001 -0.02001,-0.23 -0.03,-0.36 -0.04001,-0.73999 -0.23001,0.07998 -0.75,0.16998 -1.01999,0.18998 -0.38,0.03002 -0.68002,0.07 -1.20001,0.11 -1.26999,-0.53 -2.37001,-1.09 -2.64002,-1.22 -0.16999,-0.07998 -0.48999,-0.29 -0.60998,-0.42 l -0.03002,0.01002 c 0.04001,0.27998 0.07001,0.55 0.09002,0.83999 0.01999,0.27999 0.03001,0.58001 0.03999,0.90001 0.2,-0.01001 0.39999,0.03 0.57002,0.09999 0.42998,0.16001 1.00998,0.34 1.95,0.74999 v 0.03001 c -0.5,0.31 -1.24001,0.67999 -1.67001,0.88001 -0.21,0.09999 -0.49999,0.17998 -0.7,0.17998 0.03,0.2 0.04999,0.35002 0.06999,0.64001 0.02,0.22 0.03,0.42001 0.02,0.62001 0.21,-0.23001 0.5,-0.44 0.62002,-0.52 z"
       style="fill:#c8161e;fill-opacity:1;fill-rule:evenodd;stroke:none"
       transform="matrix(1.3333333,0,0,-1.3333333,66.666667,66.666667)" />
  </g>
</svg>
